<svg xmlns="http://www.w3.org/2000/svg"  viewBox="0 0 48 48" width="48px" height="48px"><path fill="#37474f" d="M24,43.922C22.506,35.275,8.961,44.371,8,29V12c0-3.416-0.749-5.009-3-8h38c-2.251,2.991-3,4.584-3,8v17C39.039,44.371,25.495,35.275,24,43.922z"/><path fill="#ff3d00" d="M13,15c0.046-0.179,0.294,0.007,1.133,0.486c2.475,1.411,5.9,0.359,5.96,2.327c0.063,2.031-3.655-0.022-4.133-0.245C15.267,17.243,12.791,15.809,13,15z"/><path fill="#ffd600" d="M25,23V10h-9c0,0-6.107-0.007-6,4c0.48-0.272,2.105-1,3-1c1.056,0,2.535,1.523,3,2c1.678,1.722,4,1.253,4,2.552c0,1.131-0.995,0.996-1.4,0.996s-1.97-0.41-3.095-0.537C14.738,17.925,12.517,16.41,12,16c0,0-0.091,0.643-0.091,1.131c0,1.005,1.401,2.81,4.421,3.295C19.456,20.928,21,23,21,23H25z"/><path fill="#fff" d="M16,10c0.171-0.387,0.582-2,4.699-2s7.235,1.45,8.964,3.476c2.262,2.65,2.852,5.697,5.536,7.655C36.503,20.083,38,20,38,20s0.224,2.428-4,3c0.152,0.422,0.564,3.928,0,5c-1.215,0.27-2.583-1-3-1c0.225,0.662,0.563,2.375,0,4c-0.938,0-2-1-2-1s0.337,1.464,0,3c-1.249,0.085-2.436-1-2.436-1s-0.714,2.717-2.064,4c-0.675-0.202-2-2-2-2s-1.93,2.136-3.5,2c0-7.386,2-9.27,2-11c0-2.542,0.121-2.801,0.46-3.33C22.304,20.354,23,20.184,23,19c0-1.62-1.768-2.428-2.62-3.81c-0.813-1.318-1.989-3.646-2.414-4.422C17.47,9.861,16,10,16,10z"/><path fill="#212121" d="M25.73,11.792c-0.169-0.115-0.402-0.269-0.669-0.421c-0.535-0.324-1.202-0.619-1.89-0.857c-0.691-0.229-1.416-0.4-2.043-0.46C20.516,9.977,20,10,20,10s0.119,0.519,0.553,1.043c0.126,0.168,0.288,0.331,0.466,0.488c-0.103,0.564,0.408,1.176,1.187,1.392c0.619,0.172,1.223,0.044,1.548-0.284c0.013,0.001,0.027,0.004,0.04,0.004c0.416,0.013,0.809-0.025,1.142-0.131c0.331-0.078,0.6-0.214,0.782-0.323C25.901,12.081,26,12,26,12S25.898,11.912,25.73,11.792z"/></svg>