<svg xmlns="http://www.w3.org/2000/svg" xmlns:xlink="http://www.w3.org/1999/xlink" viewBox="0,0,256,256" width="48px" height="48px" fill-rule="nonzero"><g fill="none" fill-rule="nonzero" stroke="none" stroke-width="1" stroke-linecap="butt" stroke-linejoin="miter" stroke-miterlimit="10" stroke-dasharray="" stroke-dashoffset="0" font-family="none" font-weight="none" font-size="none" text-anchor="none" style="mix-blend-mode: normal"><g transform="scale(5.33333,5.33333)"><path d="M1.998,10h44v27h-44z" fill="#eceff1"></path><path d="M2,10h44v3h-44zM2,16h44v3h-44zM2,22h44v3h-44zM2,28h44v3h-44zM2,34h44v3h-44z" fill="#f44336"></path><path d="M2,10h21v15h-21z" fill="#3f51b5"></path><g fill="#ffffff"><path d="M4.25,12l0.463,0.988l1.037,0.158l-0.75,0.77l0.178,1.084l-0.928,-0.512l-0.928,0.512l0.178,-1.084l-0.75,-0.77l1.037,-0.158zM8.25,12l0.463,0.988l1.037,0.158l-0.75,0.77l0.178,1.084l-0.928,-0.512l-0.928,0.512l0.178,-1.084l-0.75,-0.77l1.037,-0.158zM12.25,12l0.463,0.988l1.037,0.158l-0.75,0.77l0.178,1.084l-0.928,-0.512l-0.928,0.512l0.178,-1.084l-0.75,-0.77l1.037,-0.158zM16.25,12l0.463,0.988l1.037,0.158l-0.75,0.77l0.178,1.084l-0.928,-0.512l-0.928,0.512l0.178,-1.084l-0.75,-0.77l1.037,-0.158zM20,12l0.463,0.988l1.037,0.158l-0.75,0.77l0.178,1.084l-0.928,-0.512l-0.928,0.512l0.178,-1.084l-0.75,-0.77l1.037,-0.158zM4.25,20l0.463,0.988l1.037,0.158l-0.75,0.77l0.178,1.084l-0.928,-0.512l-0.928,0.512l0.178,-1.084l-0.75,-0.77l1.037,-0.158zM8.25,20l0.463,0.988l1.037,0.158l-0.75,0.77l0.178,1.084l-0.928,-0.512l-0.928,0.512l0.178,-1.084l-0.75,-0.77l1.037,-0.158zM12.25,20l0.463,0.988l1.037,0.158l-0.75,0.77l0.178,1.084l-0.928,-0.512l-0.928,0.512l0.178,-1.084l-0.75,-0.77l1.037,-0.158zM16.25,20l0.463,0.988l1.037,0.158l-0.75,0.77l0.178,1.084l-0.928,-0.512l-0.928,0.512l0.178,-1.084l-0.75,-0.77l1.037,-0.158zM20,20l0.463,0.988l1.037,0.158l-0.75,0.77l0.178,1.084l-0.928,-0.512l-0.928,0.512l0.178,-1.084l-0.75,-0.77l1.037,-0.158zM5.25,16l0.463,0.988l1.037,0.158l-0.75,0.77l0.178,1.084l-0.928,-0.512l-0.928,0.512l0.178,-1.084l-0.75,-0.77l1.037,-0.158zM9.25,16l0.463,0.988l1.037,0.158l-0.75,0.77l0.178,1.084l-0.928,-0.512l-0.928,0.512l0.178,-1.084l-0.75,-0.77l1.037,-0.158zM13.25,16l0.463,0.988l1.037,0.158l-0.75,0.77l0.178,1.084l-0.928,-0.512l-0.928,0.512l0.178,-1.084l-0.75,-0.77l1.037,-0.158zM17.25,16l0.463,0.988l1.037,0.158l-0.75,0.77l0.178,1.084l-0.928,-0.512l-0.928,0.512l0.178,-1.084l-0.75,-0.77l1.037,-0.158zM21,16l0.463,0.988l1.037,0.158l-0.75,0.77l0.178,1.084l-0.928,-0.512l-0.928,0.512l0.178,-1.084l-0.75,-0.77l1.037,-0.158z"></path></g></g></g><g fill="none" fill-rule="nonzero" stroke="none" stroke-width="none" stroke-linecap="butt" stroke-linejoin="none" stroke-miterlimit="10" stroke-dasharray="" stroke-dashoffset="0" font-family="none" font-weight="none" font-size="none" text-anchor="none" style="mix-blend-mode: normal"><path d="M15.26833,206.87833h11.5v1.42c-0.82,0.52 -1.76667,0.88 -2.84,1.08v14.37c0,1.22 0.13667,2.24333 0.41,3.07c0.27333,0.82 0.67333,1.48333 1.2,1.99c0.52,0.51333 1.14667,0.88 1.88,1.1c0.73333,0.22667 1.56333,0.34 2.49,0.34c0.82,0 1.57,-0.11667 2.25,-0.35c0.68667,-0.24 1.28667,-0.62 1.8,-1.14c0.50667,-0.52667 0.89667,-1.21333 1.17,-2.06c0.27333,-0.84667 0.41,-1.89 0.41,-3.13v-14c-0.57333,-0.12667 -1.16333,-0.3 -1.77,-0.52c-0.60667,-0.22667 -1.11,-0.47667 -1.51,-0.75v-1.42h9.26v1.42c-0.45333,0.32 -0.95333,0.58 -1.5,0.78c-0.54667,0.2 -1.08,0.36333 -1.6,0.49v14.04c0,3.18 -0.84,5.6 -2.52,7.26c-1.68,1.65333 -4.05,2.48 -7.11,2.48c-3.34,0 -5.91667,-0.74667 -7.73,-2.24c-1.82,-1.49333 -2.73,-3.88333 -2.73,-7.17v-14.56c-0.49333,-0.07333 -1.01667,-0.20333 -1.57,-0.39c-0.54667,-0.18667 -1.04333,-0.41667 -1.49,-0.69zM46.02833,224.42833l1.53,5.48c0.28,0.28 0.66667,0.53667 1.16,0.77c0.5,0.23333 1.16,0.35 1.98,0.35c1.36667,0 2.50667,-0.35333 3.42,-1.06c0.90667,-0.70667 1.36,-1.69667 1.36,-2.97c0,-0.92 -0.29333,-1.69 -0.88,-2.31c-0.58667,-0.62667 -1.32667,-1.2 -2.22,-1.72c-0.89333,-0.52 -1.85,-1.03667 -2.87,-1.55c-1.02,-0.50667 -1.98,-1.11 -2.88,-1.81c-0.89333,-0.69333 -1.63333,-1.52 -2.22,-2.48c-0.58667,-0.96 -0.88,-2.15 -0.88,-3.57c0,-1.22 0.22333,-2.27667 0.67,-3.17c0.45333,-0.89333 1.07,-1.63333 1.85,-2.22c0.78667,-0.58667 1.71333,-1.02333 2.78,-1.31c1.07333,-0.28667 2.23333,-0.43 3.48,-0.43c1.51333,0 2.92333,0.10667 4.23,0.32c1.30667,0.21333 2.48333,0.54333 3.53,0.99c-0.02667,0.5 -0.07,1.07333 -0.13,1.72c-0.06,0.64667 -0.14,1.28667 -0.24,1.92c-0.1,0.63333 -0.20667,1.23 -0.32,1.79c-0.11333,0.56 -0.22,1.02667 -0.32,1.4h-1.53l-1.71,-5.11c-0.3,-0.15333 -0.74333,-0.29 -1.33,-0.41c-0.58667,-0.12667 -1.19,-0.19 -1.81,-0.19c-1.04667,0 -1.93,0.27333 -2.65,0.82c-0.72,0.54667 -1.08,1.34333 -1.08,2.39c0,0.94667 0.29667,1.75 0.89,2.41c0.6,0.66 1.34667,1.26333 2.24,1.81c0.9,0.54667 1.87667,1.08667 2.93,1.62c1.06,0.53333 2.03667,1.15 2.93,1.85c0.9,0.7 1.64667,1.51667 2.24,2.45c0.6,0.93333 0.9,2.08333 0.9,3.45c0,2.48667 -0.84,4.41 -2.52,5.77c-1.68,1.35333 -4.15,2.03 -7.41,2.03c-0.8,0 -1.60333,-0.05 -2.41,-0.15c-0.80667,-0.1 -1.57333,-0.23667 -2.3,-0.41c-0.72,-0.17333 -1.36,-0.36 -1.92,-0.56c-0.56,-0.2 -0.97667,-0.41 -1.25,-0.63c0.02667,-0.57333 0.09,-1.19 0.19,-1.85c0.1,-0.66 0.20667,-1.32 0.32,-1.98c0.10667,-0.66 0.22333,-1.29 0.35,-1.89c0.12667,-0.59333 0.25,-1.11333 0.37,-1.56zM71.75833,233.00833h-9.22v-1.42c0.39333,-0.24667 0.82,-0.46333 1.28,-0.65c0.46,-0.18667 0.91667,-0.33 1.37,-0.43l9.63,-24.08h2.76l9.37,24.08c0.5,0.1 0.99667,0.24333 1.49,0.43c0.5,0.18667 0.93667,0.40333 1.31,0.65v1.42h-11.68v-1.42c0.47333,-0.22 0.98333,-0.43 1.53,-0.63c0.54667,-0.2 1.06667,-0.35 1.56,-0.45l-2.16,-5.93h-8.29l-2.2,5.93c1.14667,0.15333 2.23,0.51333 3.25,1.08zM74.17833,215.08833l-2.57,7.06h6.61l-2.43,-7.13l-0.71,-3.21h-0.08zM90.75833,206.87833h11.5v1.42c-0.4,0.24667 -0.85,0.47 -1.35,0.67c-0.49333,0.2 -0.99,0.33667 -1.49,0.41v19.12c0,2.04 -0.30333,3.71333 -0.91,5.02c-0.61333,1.30667 -1.33667,2.34 -2.17,3.1c-0.83333,0.75333 -1.68667,1.30667 -2.56,1.66c-0.86667,0.34667 -1.57333,0.58333 -2.12,0.71l-0.71,-0.97c0.37333,-0.3 0.73333,-0.68 1.08,-1.14c0.34667,-0.46 0.65,-1.05333 0.91,-1.78c0.26667,-0.72 0.48,-1.59667 0.64,-2.63c0.16,-1.03333 0.24,-2.28333 0.24,-3.75v-19.34c-0.54667,-0.12667 -1.08667,-0.27 -1.62,-0.43c-0.54,-0.16 -1.02,-0.37667 -1.44,-0.65zM104.53833,223.67833c0,-1.52 0.23,-2.88333 0.69,-4.09c0.46,-1.20667 1.11667,-2.23333 1.97,-3.08c0.86,-0.84667 1.9,-1.49333 3.12,-1.94c1.22,-0.44667 2.60333,-0.67 4.15,-0.67c1.74,0 3.23667,0.24333 4.49,0.73c1.26,0.48 2.29333,1.15 3.1,2.01c0.81333,0.86 1.40667,1.89333 1.78,3.1c0.37333,1.20667 0.56,2.52 0.56,3.94c0,1.52 -0.22667,2.88333 -0.68,4.09c-0.44667,1.20667 -1.1,2.23333 -1.96,3.08c-0.85333,0.84667 -1.89667,1.49333 -3.13,1.94c-1.23333,0.44667 -2.62,0.67 -4.16,0.67c-1.69333,0 -3.16333,-0.24333 -4.41,-0.73c-1.24667,-0.48 -2.28,-1.15 -3.1,-2.01c-0.82,-0.86 -1.43,-1.89333 -1.83,-3.1c-0.39333,-1.20667 -0.59,-2.52 -0.59,-3.94zM110.31833,223.67833c0,1.12 0.07,2.14667 0.21,3.08c0.13333,0.93333 0.37667,1.72333 0.73,2.37c0.34667,0.64667 0.81667,1.15 1.41,1.51c0.6,0.36 1.37333,0.54 2.32,0.54c0.54667,0 1.04333,-0.13 1.49,-0.39c0.44667,-0.26 0.83333,-0.68333 1.16,-1.27c0.32,-0.58 0.56333,-1.35 0.73,-2.31c0.16,-0.96 0.24,-2.13667 0.24,-3.53c0,-1.14667 -0.07,-2.18 -0.21,-3.1c-0.13333,-0.92 -0.36667,-1.70333 -0.7,-2.35c-0.34,-0.64667 -0.79667,-1.15 -1.37,-1.51c-0.57333,-0.36 -1.29333,-0.54 -2.16,-0.54c-0.64667,0 -1.20667,0.13 -1.68,0.39c-0.47333,0.26 -0.87333,0.68333 -1.2,1.27c-0.32,0.58 -0.56333,1.35 -0.73,2.31c-0.16,0.96 -0.24,2.13667 -0.24,3.53zM128.05833,208.03833l-2.84,-0.3v-1.46c0.37333,-0.14667 0.86333,-0.29667 1.47,-0.45c0.61333,-0.14667 1.25,-0.27667 1.91,-0.39c0.66,-0.11333 1.30667,-0.21333 1.94,-0.3c0.63333,-0.08667 1.17333,-0.15333 1.62,-0.2h1.27v12.92h0.08c0.49333,-1.24667 1.25,-2.22 2.27,-2.92c1.02,-0.69333 2.22667,-1.04 3.62,-1.04c2.19333,0 3.9,0.76 5.12,2.28c1.22,1.51333 1.83,3.81333 1.83,6.9c0,3.41333 -0.90333,5.97667 -2.71,7.69c-1.8,1.72 -4.44333,2.58 -7.93,2.58c-0.62,0 -1.31667,-0.04333 -2.09,-0.13c-0.77333,-0.08667 -1.52,-0.19333 -2.24,-0.32c-0.72,-0.12667 -1.38667,-0.27667 -2,-0.45c-0.60667,-0.17333 -1.04667,-0.34667 -1.32,-0.52zM136.97833,216.88833c-0.94667,0 -1.70667,0.34 -2.28,1.02c-0.57333,0.68667 -0.99667,1.55333 -1.27,2.6v9.89c0.34667,0.24667 0.77667,0.44667 1.29,0.6c0.50667,0.14667 1.08667,0.22 1.74,0.22c1.41333,0 2.45,-0.63333 3.11,-1.9c0.66,-1.27333 0.99,-3.26667 0.99,-5.98c0,-1.96667 -0.26667,-3.53333 -0.8,-4.7c-0.53333,-1.16667 -1.46,-1.75 -2.78,-1.75zM158.25833,228.93833c0,-0.64667 -0.23,-1.20667 -0.69,-1.68c-0.46,-0.47333 -1.03333,-0.90667 -1.72,-1.3c-0.68667,-0.4 -1.43333,-0.8 -2.24,-1.2c-0.80667,-0.39333 -1.55333,-0.86 -2.24,-1.4c-0.68667,-0.53333 -1.26,-1.16 -1.72,-1.88c-0.46,-0.72667 -0.69,-1.61 -0.69,-2.65c0,-0.74667 0.17333,-1.42667 0.52,-2.04c0.35333,-0.60667 0.82667,-1.12333 1.42,-1.55c0.6,-0.42 1.31667,-0.75 2.15,-0.99c0.83333,-0.23333 1.73667,-0.35 2.71,-0.35c1.34,0 2.59,0.10667 3.75,0.32c1.15333,0.20667 2.16667,0.49667 3.04,0.87c-0.1,0.8 -0.3,1.65333 -0.6,2.56c-0.29333,0.90667 -0.57667,1.73333 -0.85,2.48h-1.27l-1.57,-3.8c-0.3,-0.12667 -0.61333,-0.21 -0.94,-0.25c-0.32,-0.03333 -0.68,-0.05 -1.08,-0.05c-0.74667,0 -1.31333,0.21667 -1.7,0.65c-0.38667,0.43333 -0.58,0.92333 -0.58,1.47c0,0.62667 0.23333,1.17 0.7,1.63c0.46,0.46 1.03,0.89 1.71,1.29c0.68667,0.39333 1.43333,0.79 2.24,1.19c0.81333,0.4 1.56,0.85333 2.24,1.36c0.68667,0.51333 1.26,1.11667 1.72,1.81c0.46,0.7 0.69,1.53667 0.69,2.51c0,1.71333 -0.69667,3.06333 -2.09,4.05c-1.39333,0.98 -3.26,1.47 -5.6,1.47c-1.19333,0 -2.42667,-0.12333 -3.7,-0.37c-1.26667,-0.25333 -2.36,-0.60333 -3.28,-1.05c0.04667,-0.89333 0.25667,-1.8 0.63,-2.72c0.37333,-0.92 0.77333,-1.74333 1.2,-2.47h1.27l1.83,4.07c0.27333,0.2 0.57667,0.32 0.91,0.36c0.34,0.03333 0.65667,0.05 0.95,0.05c0.72667,0 1.38667,-0.21 1.98,-0.63c0.6,-0.42667 0.9,-1.01333 0.9,-1.76zM166.72833,230.35833c0,-0.89333 0.28667,-1.61333 0.86,-2.16c0.57333,-0.54667 1.33333,-0.82 2.28,-0.82c0.94667,0 1.71667,0.27333 2.31,0.82c0.6,0.54667 0.9,1.26667 0.9,2.16c0,0.9 -0.3,1.61667 -0.9,2.15c-0.59333,0.53333 -1.36333,0.8 -2.31,0.8c-0.94667,0 -1.70667,-0.26667 -2.28,-0.8c-0.57333,-0.53333 -0.86,-1.25 -0.86,-2.15zM185.28833,213.89833c1.61333,0 2.95667,0.16667 4.03,0.5c1.06667,0.34 1.87667,0.75667 2.43,1.25c1.16667,-1.26667 2.51,-2.15 4.03,-2.65c0.17333,0.12667 0.34667,0.30667 0.52,0.54c0.17333,0.24 0.32333,0.49667 0.45,0.77c0.12667,0.27333 0.22667,0.54667 0.3,0.82c0.07333,0.27333 0.11,0.49667 0.11,0.67l-0.49,0.9h-3.92c0.27333,0.34667 0.53,0.8 0.77,1.36c0.23333,0.56 0.35,1.22667 0.35,2c0,0.82 -0.17333,1.59 -0.52,2.31c-0.34667,0.72667 -0.87667,1.37 -1.59,1.93c-0.70667,0.56 -1.6,1 -2.68,1.32c-1.08667,0.32667 -2.35,0.49 -3.79,0.49c-0.42667,0 -0.80667,-0.00667 -1.14,-0.02c-0.34,-0.01333 -0.63333,-0.04667 -0.88,-0.1c-0.1,0.15333 -0.20667,0.33667 -0.32,0.55c-0.10667,0.20667 -0.16,0.41 -0.16,0.61c0,0.42667 0.29667,0.76333 0.89,1.01c0.6,0.24667 1.36,0.47 2.28,0.67c0.92,0.2 1.91,0.42333 2.97,0.67c1.05333,0.25333 2.04333,0.58333 2.97,0.99c0.92,0.41333 1.69,0.95 2.31,1.61c0.62,0.66 0.94333,1.51333 0.97,2.56c0.02667,0.99333 -0.22333,1.87667 -0.75,2.65c-0.52,0.76667 -1.23333,1.42 -2.14,1.96c-0.91333,0.53333 -1.98333,0.94333 -3.21,1.23c-1.23333,0.28667 -2.54667,0.43 -3.94,0.43c-1.64667,0 -3.04667,-0.13 -4.2,-0.39c-1.16,-0.26667 -2.1,-0.62333 -2.82,-1.07c-0.72,-0.44667 -1.25,-0.95667 -1.59,-1.53c-0.33333,-0.57333 -0.5,-1.17 -0.5,-1.79c0,-0.7 0.13667,-1.29667 0.41,-1.79c0.27333,-0.5 0.66,-0.93667 1.16,-1.31c0.49333,-0.37333 1.07,-0.68333 1.73,-0.93c0.66,-0.25333 1.39,-0.47667 2.19,-0.67c-0.37333,-0.1 -0.73667,-0.22667 -1.09,-0.38c-0.34667,-0.14667 -0.65667,-0.32667 -0.93,-0.54c-0.27333,-0.21333 -0.49667,-0.46333 -0.67,-0.75c-0.17333,-0.28667 -0.26,-0.61667 -0.26,-0.99c0,-0.32 0.1,-0.63667 0.3,-0.95c0.19333,-0.30667 0.45333,-0.59333 0.78,-0.86c0.32667,-0.26 0.67667,-0.49667 1.05,-0.71c0.37333,-0.20667 0.74667,-0.38667 1.12,-0.54c-1.57333,-0.34667 -2.82,-1.02333 -3.74,-2.03c-0.92,-1.00667 -1.38,-2.29667 -1.38,-3.87c0,-1.86667 0.77333,-3.32 2.32,-4.36c1.54,-1.04667 3.63,-1.57 6.27,-1.57zM189.98833,235.84833c0,-0.67333 -0.20333,-1.21333 -0.61,-1.62c-0.41333,-0.41333 -0.94333,-0.75 -1.59,-1.01c-0.64667,-0.26 -1.37667,-0.48333 -2.19,-0.67c-0.80667,-0.18667 -1.60667,-0.40667 -2.4,-0.66c-0.64667,0.5 -1.10667,1 -1.38,1.5c-0.28,0.49333 -0.42,1.09 -0.42,1.79c0,1.14667 0.39333,2.03667 1.18,2.67c0.78667,0.63333 1.88667,0.95 3.3,0.95c1.4,0 2.43333,-0.29333 3.1,-0.88c0.67333,-0.58 1.01,-1.27 1.01,-2.07zM182.07833,220.01833c0,1.29333 0.21667,2.27667 0.65,2.95c0.43333,0.67333 1.28667,1.01 2.56,1.01c1.22,0 2.06,-0.34333 2.52,-1.03c0.46,-0.68 0.69,-1.65667 0.69,-2.93c0,-1.34 -0.23667,-2.34 -0.71,-3c-0.47333,-0.66 -1.30667,-0.99 -2.5,-0.99c-1.24667,0 -2.09333,0.32333 -2.54,0.97c-0.44667,0.64667 -0.67,1.65333 -0.67,3.02zM197.63833,223.67833c0,-1.52 0.23333,-2.88333 0.7,-4.09c0.46,-1.20667 1.11667,-2.23333 1.97,-3.08c0.86,-0.84667 1.9,-1.49333 3.12,-1.94c1.22,-0.44667 2.60333,-0.67 4.15,-0.67c1.74,0 3.23667,0.24333 4.49,0.73c1.26,0.48 2.29333,1.15 3.1,2.01c0.81333,0.86 1.40667,1.89333 1.78,3.1c0.37333,1.20667 0.56,2.52 0.56,3.94c0,1.52 -0.22667,2.88333 -0.68,4.09c-0.44667,1.20667 -1.1,2.23333 -1.96,3.08c-0.85333,0.84667 -1.89667,1.49333 -3.13,1.94c-1.23333,0.44667 -2.62,0.67 -4.16,0.67c-1.69333,0 -3.16333,-0.24333 -4.41,-0.73c-1.24667,-0.48 -2.28,-1.15 -3.1,-2.01c-0.82,-0.86 -1.43,-1.89333 -1.83,-3.1c-0.4,-1.20667 -0.6,-2.52 -0.6,-3.94zM203.42833,223.67833c0,1.12 0.07,2.14667 0.21,3.08c0.13333,0.93333 0.37333,1.72333 0.72,2.37c0.35333,0.64667 0.82667,1.15 1.42,1.51c0.6,0.36 1.37333,0.54 2.32,0.54c0.54667,0 1.04333,-0.13 1.49,-0.39c0.44667,-0.26 0.83333,-0.68333 1.16,-1.27c0.32,-0.58 0.56333,-1.35 0.73,-2.31c0.16,-0.96 0.24,-2.13667 0.24,-3.53c0,-1.14667 -0.07,-2.18 -0.21,-3.1c-0.13333,-0.92 -0.37,-1.70333 -0.71,-2.35c-0.33333,-0.64667 -0.78667,-1.15 -1.36,-1.51c-0.57333,-0.36 -1.29333,-0.54 -2.16,-0.54c-0.64667,0 -1.20667,0.13 -1.68,0.39c-0.47333,0.26 -0.87333,0.68333 -1.2,1.27c-0.32,0.58 -0.56333,1.35 -0.73,2.31c-0.16,0.96 -0.24,2.13667 -0.24,3.53zM229.93833,233.00833l-2.76,0.45l-7.47,-16.76c-0.72,-0.24667 -1.38,-0.54667 -1.98,-0.9v-1.45h9.82v1.42c-0.32667,0.17333 -0.65667,0.34 -0.99,0.5c-0.33333,0.16 -0.71333,0.30333 -1.14,0.43l3.47,9.56l0.71,2.5h0.08l0.59,-2.54l3.18,-9.52c-0.4,-0.1 -0.76667,-0.22333 -1.1,-0.37c-0.34,-0.15333 -0.66,-0.33 -0.96,-0.53v-1.45h7.21v1.45c-0.24667,0.17333 -0.55333,0.33667 -0.92,0.49c-0.36,0.14667 -0.76333,0.28333 -1.21,0.41z" id="strokeMainSVG" fill="#ffffff" stroke="#ffffff" stroke-width="5.33333" stroke-linejoin="round"></path><g fill="#000000" stroke="none" stroke-width="1" stroke-linejoin="miter"><path d="M15.26833,208.29833v-1.42h11.5v1.42c-0.82,0.52 -1.76667,0.88 -2.84,1.08v0v14.37c0,1.22 0.13667,2.24333 0.41,3.07c0.27333,0.82 0.67333,1.48333 1.2,1.99c0.52,0.51333 1.14667,0.88 1.88,1.1c0.73333,0.22667 1.56333,0.34 2.49,0.34v0c0.82,0 1.57,-0.11667 2.25,-0.35c0.68667,-0.24 1.28667,-0.62 1.8,-1.14c0.50667,-0.52667 0.89667,-1.21333 1.17,-2.06c0.27333,-0.84667 0.41,-1.89 0.41,-3.13v0v-14c-0.57333,-0.12667 -1.16333,-0.3 -1.77,-0.52c-0.60667,-0.22667 -1.11,-0.47667 -1.51,-0.75v0v-1.42h9.26v1.42c-0.45333,0.32 -0.95333,0.58 -1.5,0.78c-0.54667,0.2 -1.08,0.36333 -1.6,0.49v0v14.04c0,3.18 -0.84,5.6 -2.52,7.26c-1.68,1.65333 -4.05,2.48 -7.11,2.48v0c-3.34,0 -5.91667,-0.74667 -7.73,-2.24c-1.82,-1.49333 -2.73,-3.88333 -2.73,-7.17v0v-14.56c-0.49333,-0.07333 -1.01667,-0.20333 -1.57,-0.39c-0.54667,-0.18667 -1.04333,-0.41667 -1.49,-0.69zM46.02833,224.42833l1.53,5.48c0.28,0.28 0.66667,0.53667 1.16,0.77c0.5,0.23333 1.16,0.35 1.98,0.35v0c1.36667,0 2.50667,-0.35333 3.42,-1.06c0.90667,-0.70667 1.36,-1.69667 1.36,-2.97v0c0,-0.92 -0.29333,-1.69 -0.88,-2.31c-0.58667,-0.62667 -1.32667,-1.2 -2.22,-1.72c-0.89333,-0.52 -1.85,-1.03667 -2.87,-1.55c-1.02,-0.50667 -1.98,-1.11 -2.88,-1.81c-0.89333,-0.69333 -1.63333,-1.52 -2.22,-2.48c-0.58667,-0.96 -0.88,-2.15 -0.88,-3.57v0c0,-1.22 0.22333,-2.27667 0.67,-3.17c0.45333,-0.89333 1.07,-1.63333 1.85,-2.22c0.78667,-0.58667 1.71333,-1.02333 2.78,-1.31c1.07333,-0.28667 2.23333,-0.43 3.48,-0.43v0c1.51333,0 2.92333,0.10667 4.23,0.32c1.30667,0.21333 2.48333,0.54333 3.53,0.99v0c-0.02667,0.5 -0.07,1.07333 -0.13,1.72c-0.06,0.64667 -0.14,1.28667 -0.24,1.92c-0.1,0.63333 -0.20667,1.23 -0.32,1.79c-0.11333,0.56 -0.22,1.02667 -0.32,1.4v0h-1.53l-1.71,-5.11c-0.3,-0.15333 -0.74333,-0.29 -1.33,-0.41c-0.58667,-0.12667 -1.19,-0.19 -1.81,-0.19v0c-1.04667,0 -1.93,0.27333 -2.65,0.82c-0.72,0.54667 -1.08,1.34333 -1.08,2.39v0c0,0.94667 0.29667,1.75 0.89,2.41c0.6,0.66 1.34667,1.26333 2.24,1.81c0.9,0.54667 1.87667,1.08667 2.93,1.62c1.06,0.53333 2.03667,1.15 2.93,1.85c0.9,0.7 1.64667,1.51667 2.24,2.45c0.6,0.93333 0.9,2.08333 0.9,3.45v0c0,2.48667 -0.84,4.41 -2.52,5.77c-1.68,1.35333 -4.15,2.03 -7.41,2.03v0c-0.8,0 -1.60333,-0.05 -2.41,-0.15c-0.80667,-0.1 -1.57333,-0.23667 -2.3,-0.41c-0.72,-0.17333 -1.36,-0.36 -1.92,-0.56c-0.56,-0.2 -0.97667,-0.41 -1.25,-0.63v0c0.02667,-0.57333 0.09,-1.19 0.19,-1.85c0.1,-0.66 0.20667,-1.32 0.32,-1.98c0.10667,-0.66 0.22333,-1.29 0.35,-1.89c0.12667,-0.59333 0.25,-1.11333 0.37,-1.56v0zM71.75833,231.58833v1.42h-9.22v-1.42c0.39333,-0.24667 0.82,-0.46333 1.28,-0.65c0.46,-0.18667 0.91667,-0.33 1.37,-0.43v0l9.63,-24.08h2.76l9.37,24.08c0.5,0.1 0.99667,0.24333 1.49,0.43c0.5,0.18667 0.93667,0.40333 1.31,0.65v0v1.42h-11.68v-1.42c0.47333,-0.22 0.98333,-0.43 1.53,-0.63c0.54667,-0.2 1.06667,-0.35 1.56,-0.45v0l-2.16,-5.93h-8.29l-2.2,5.93c1.14667,0.15333 2.23,0.51333 3.25,1.08zM74.17833,215.08833l-2.57,7.06h6.61l-2.43,-7.13l-0.71,-3.21h-0.08zM90.75833,208.29833v-1.42h11.5v1.42c-0.4,0.24667 -0.85,0.47 -1.35,0.67c-0.49333,0.2 -0.99,0.33667 -1.49,0.41v0v19.12c0,2.04 -0.30333,3.71333 -0.91,5.02c-0.61333,1.30667 -1.33667,2.34 -2.17,3.1c-0.83333,0.75333 -1.68667,1.30667 -2.56,1.66c-0.86667,0.34667 -1.57333,0.58333 -2.12,0.71v0l-0.71,-0.97c0.37333,-0.3 0.73333,-0.68 1.08,-1.14c0.34667,-0.46 0.65,-1.05333 0.91,-1.78c0.26667,-0.72 0.48,-1.59667 0.64,-2.63c0.16,-1.03333 0.24,-2.28333 0.24,-3.75v0v-19.34c-0.54667,-0.12667 -1.08667,-0.27 -1.62,-0.43c-0.54,-0.16 -1.02,-0.37667 -1.44,-0.65zM104.53833,223.67833v0c0,-1.52 0.23,-2.88333 0.69,-4.09c0.46,-1.20667 1.11667,-2.23333 1.97,-3.08c0.86,-0.84667 1.9,-1.49333 3.12,-1.94c1.22,-0.44667 2.60333,-0.67 4.15,-0.67v0c1.74,0 3.23667,0.24333 4.49,0.73c1.26,0.48 2.29333,1.15 3.1,2.01c0.81333,0.86 1.40667,1.89333 1.78,3.1c0.37333,1.20667 0.56,2.52 0.56,3.94v0c0,1.52 -0.22667,2.88333 -0.68,4.09c-0.44667,1.20667 -1.1,2.23333 -1.96,3.08c-0.85333,0.84667 -1.89667,1.49333 -3.13,1.94c-1.23333,0.44667 -2.62,0.67 -4.16,0.67v0c-1.69333,0 -3.16333,-0.24333 -4.41,-0.73c-1.24667,-0.48 -2.28,-1.15 -3.1,-2.01c-0.82,-0.86 -1.43,-1.89333 -1.83,-3.1c-0.39333,-1.20667 -0.59,-2.52 -0.59,-3.94zM110.31833,223.67833v0c0,1.12 0.07,2.14667 0.21,3.08c0.13333,0.93333 0.37667,1.72333 0.73,2.37c0.34667,0.64667 0.81667,1.15 1.41,1.51c0.6,0.36 1.37333,0.54 2.32,0.54v0c0.54667,0 1.04333,-0.13 1.49,-0.39c0.44667,-0.26 0.83333,-0.68333 1.16,-1.27c0.32,-0.58 0.56333,-1.35 0.73,-2.31c0.16,-0.96 0.24,-2.13667 0.24,-3.53v0c0,-1.14667 -0.07,-2.18 -0.21,-3.1c-0.13333,-0.92 -0.36667,-1.70333 -0.7,-2.35c-0.34,-0.64667 -0.79667,-1.15 -1.37,-1.51c-0.57333,-0.36 -1.29333,-0.54 -2.16,-0.54v0c-0.64667,0 -1.20667,0.13 -1.68,0.39c-0.47333,0.26 -0.87333,0.68333 -1.2,1.27c-0.32,0.58 -0.56333,1.35 -0.73,2.31c-0.16,0.96 -0.24,2.13667 -0.24,3.53zM128.05833,231.92833v-23.89l-2.84,-0.3v-1.46c0.37333,-0.14667 0.86333,-0.29667 1.47,-0.45c0.61333,-0.14667 1.25,-0.27667 1.91,-0.39c0.66,-0.11333 1.30667,-0.21333 1.94,-0.3c0.63333,-0.08667 1.17333,-0.15333 1.62,-0.2v0h1.27v12.92h0.08c0.49333,-1.24667 1.25,-2.22 2.27,-2.92c1.02,-0.69333 2.22667,-1.04 3.62,-1.04v0c2.19333,0 3.9,0.76 5.12,2.28c1.22,1.51333 1.83,3.81333 1.83,6.9v0c0,3.41333 -0.90333,5.97667 -2.71,7.69c-1.8,1.72 -4.44333,2.58 -7.93,2.58v0c-0.62,0 -1.31667,-0.04333 -2.09,-0.13c-0.77333,-0.08667 -1.52,-0.19333 -2.24,-0.32c-0.72,-0.12667 -1.38667,-0.27667 -2,-0.45c-0.60667,-0.17333 -1.04667,-0.34667 -1.32,-0.52zM136.97833,216.88833v0c-0.94667,0 -1.70667,0.34 -2.28,1.02c-0.57333,0.68667 -0.99667,1.55333 -1.27,2.6v0v9.89c0.34667,0.24667 0.77667,0.44667 1.29,0.6c0.50667,0.14667 1.08667,0.22 1.74,0.22v0c1.41333,0 2.45,-0.63333 3.11,-1.9c0.66,-1.27333 0.99,-3.26667 0.99,-5.98v0c0,-1.96667 -0.26667,-3.53333 -0.8,-4.7c-0.53333,-1.16667 -1.46,-1.75 -2.78,-1.75zM158.25833,228.93833v0c0,-0.64667 -0.23,-1.20667 -0.69,-1.68c-0.46,-0.47333 -1.03333,-0.90667 -1.72,-1.3c-0.68667,-0.4 -1.43333,-0.8 -2.24,-1.2c-0.80667,-0.39333 -1.55333,-0.86 -2.24,-1.4c-0.68667,-0.53333 -1.26,-1.16 -1.72,-1.88c-0.46,-0.72667 -0.69,-1.61 -0.69,-2.65v0c0,-0.74667 0.17333,-1.42667 0.52,-2.04c0.35333,-0.60667 0.82667,-1.12333 1.42,-1.55c0.6,-0.42 1.31667,-0.75 2.15,-0.99c0.83333,-0.23333 1.73667,-0.35 2.71,-0.35v0c1.34,0 2.59,0.10667 3.75,0.32c1.15333,0.20667 2.16667,0.49667 3.04,0.87v0c-0.1,0.8 -0.3,1.65333 -0.6,2.56c-0.29333,0.90667 -0.57667,1.73333 -0.85,2.48v0h-1.27l-1.57,-3.8c-0.3,-0.12667 -0.61333,-0.21 -0.94,-0.25c-0.32,-0.03333 -0.68,-0.05 -1.08,-0.05v0c-0.74667,0 -1.31333,0.21667 -1.7,0.65c-0.38667,0.43333 -0.58,0.92333 -0.58,1.47v0c0,0.62667 0.23333,1.17 0.7,1.63c0.46,0.46 1.03,0.89 1.71,1.29c0.68667,0.39333 1.43333,0.79 2.24,1.19c0.81333,0.4 1.56,0.85333 2.24,1.36c0.68667,0.51333 1.26,1.11667 1.72,1.81c0.46,0.7 0.69,1.53667 0.69,2.51v0c0,1.71333 -0.69667,3.06333 -2.09,4.05c-1.39333,0.98 -3.26,1.47 -5.6,1.47v0c-1.19333,0 -2.42667,-0.12333 -3.7,-0.37c-1.26667,-0.25333 -2.36,-0.60333 -3.28,-1.05v0c0.04667,-0.89333 0.25667,-1.8 0.63,-2.72c0.37333,-0.92 0.77333,-1.74333 1.2,-2.47v0h1.27l1.83,4.07c0.27333,0.2 0.57667,0.32 0.91,0.36c0.34,0.03333 0.65667,0.05 0.95,0.05v0c0.72667,0 1.38667,-0.21 1.98,-0.63c0.6,-0.42667 0.9,-1.01333 0.9,-1.76zM166.72833,230.35833v0c0,-0.89333 0.28667,-1.61333 0.86,-2.16c0.57333,-0.54667 1.33333,-0.82 2.28,-0.82v0c0.94667,0 1.71667,0.27333 2.31,0.82c0.6,0.54667 0.9,1.26667 0.9,2.16v0c0,0.9 -0.3,1.61667 -0.9,2.15c-0.59333,0.53333 -1.36333,0.8 -2.31,0.8v0c-0.94667,0 -1.70667,-0.26667 -2.28,-0.8c-0.57333,-0.53333 -0.86,-1.25 -0.86,-2.15zM185.28833,213.89833v0c1.61333,0 2.95667,0.16667 4.03,0.5c1.06667,0.34 1.87667,0.75667 2.43,1.25v0c1.16667,-1.26667 2.51,-2.15 4.03,-2.65v0c0.17333,0.12667 0.34667,0.30667 0.52,0.54c0.17333,0.24 0.32333,0.49667 0.45,0.77c0.12667,0.27333 0.22667,0.54667 0.3,0.82c0.07333,0.27333 0.11,0.49667 0.11,0.67v0l-0.49,0.9h-3.92c0.27333,0.34667 0.53,0.8 0.77,1.36c0.23333,0.56 0.35,1.22667 0.35,2v0c0,0.82 -0.17333,1.59 -0.52,2.31c-0.34667,0.72667 -0.87667,1.37 -1.59,1.93c-0.70667,0.56 -1.6,1 -2.68,1.32c-1.08667,0.32667 -2.35,0.49 -3.79,0.49v0c-0.42667,0 -0.80667,-0.00667 -1.14,-0.02c-0.34,-0.01333 -0.63333,-0.04667 -0.88,-0.1v0c-0.1,0.15333 -0.20667,0.33667 -0.32,0.55c-0.10667,0.20667 -0.16,0.41 -0.16,0.61v0c0,0.42667 0.29667,0.76333 0.89,1.01c0.6,0.24667 1.36,0.47 2.28,0.67c0.92,0.2 1.91,0.42333 2.97,0.67c1.05333,0.25333 2.04333,0.58333 2.97,0.99c0.92,0.41333 1.69,0.95 2.31,1.61c0.62,0.66 0.94333,1.51333 0.97,2.56v0c0.02667,0.99333 -0.22333,1.87667 -0.75,2.65c-0.52,0.76667 -1.23333,1.42 -2.14,1.96c-0.91333,0.53333 -1.98333,0.94333 -3.21,1.23c-1.23333,0.28667 -2.54667,0.43 -3.94,0.43v0c-1.64667,0 -3.04667,-0.13 -4.2,-0.39c-1.16,-0.26667 -2.1,-0.62333 -2.82,-1.07c-0.72,-0.44667 -1.25,-0.95667 -1.59,-1.53c-0.33333,-0.57333 -0.5,-1.17 -0.5,-1.79v0c0,-0.7 0.13667,-1.29667 0.41,-1.79c0.27333,-0.5 0.66,-0.93667 1.16,-1.31c0.49333,-0.37333 1.07,-0.68333 1.73,-0.93c0.66,-0.25333 1.39,-0.47667 2.19,-0.67v0c-0.37333,-0.1 -0.73667,-0.22667 -1.09,-0.38c-0.34667,-0.14667 -0.65667,-0.32667 -0.93,-0.54c-0.27333,-0.21333 -0.49667,-0.46333 -0.67,-0.75c-0.17333,-0.28667 -0.26,-0.61667 -0.26,-0.99v0c0,-0.32 0.1,-0.63667 0.3,-0.95c0.19333,-0.30667 0.45333,-0.59333 0.78,-0.86c0.32667,-0.26 0.67667,-0.49667 1.05,-0.71c0.37333,-0.20667 0.74667,-0.38667 1.12,-0.54v0c-1.57333,-0.34667 -2.82,-1.02333 -3.74,-2.03c-0.92,-1.00667 -1.38,-2.29667 -1.38,-3.87v0c0,-1.86667 0.77333,-3.32 2.32,-4.36c1.54,-1.04667 3.63,-1.57 6.27,-1.57zM189.98833,235.84833v0c0,-0.67333 -0.20333,-1.21333 -0.61,-1.62c-0.41333,-0.41333 -0.94333,-0.75 -1.59,-1.01c-0.64667,-0.26 -1.37667,-0.48333 -2.19,-0.67c-0.80667,-0.18667 -1.60667,-0.40667 -2.4,-0.66v0c-0.64667,0.5 -1.10667,1 -1.38,1.5c-0.28,0.49333 -0.42,1.09 -0.42,1.79v0c0,1.14667 0.39333,2.03667 1.18,2.67c0.78667,0.63333 1.88667,0.95 3.3,0.95v0c1.4,0 2.43333,-0.29333 3.1,-0.88c0.67333,-0.58 1.01,-1.27 1.01,-2.07zM182.07833,220.01833v0c0,1.29333 0.21667,2.27667 0.65,2.95c0.43333,0.67333 1.28667,1.01 2.56,1.01v0c1.22,0 2.06,-0.34333 2.52,-1.03c0.46,-0.68 0.69,-1.65667 0.69,-2.93v0c0,-1.34 -0.23667,-2.34 -0.71,-3c-0.47333,-0.66 -1.30667,-0.99 -2.5,-0.99v0c-1.24667,0 -2.09333,0.32333 -2.54,0.97c-0.44667,0.64667 -0.67,1.65333 -0.67,3.02zM197.63833,223.67833v0c0,-1.52 0.23333,-2.88333 0.7,-4.09c0.46,-1.20667 1.11667,-2.23333 1.97,-3.08c0.86,-0.84667 1.9,-1.49333 3.12,-1.94c1.22,-0.44667 2.60333,-0.67 4.15,-0.67v0c1.74,0 3.23667,0.24333 4.49,0.73c1.26,0.48 2.29333,1.15 3.1,2.01c0.81333,0.86 1.40667,1.89333 1.78,3.1c0.37333,1.20667 0.56,2.52 0.56,3.94v0c0,1.52 -0.22667,2.88333 -0.68,4.09c-0.44667,1.20667 -1.1,2.23333 -1.96,3.08c-0.85333,0.84667 -1.89667,1.49333 -3.13,1.94c-1.23333,0.44667 -2.62,0.67 -4.16,0.67v0c-1.69333,0 -3.16333,-0.24333 -4.41,-0.73c-1.24667,-0.48 -2.28,-1.15 -3.1,-2.01c-0.82,-0.86 -1.43,-1.89333 -1.83,-3.1c-0.4,-1.20667 -0.6,-2.52 -0.6,-3.94zM203.42833,223.67833v0c0,1.12 0.07,2.14667 0.21,3.08c0.13333,0.93333 0.37333,1.72333 0.72,2.37c0.35333,0.64667 0.82667,1.15 1.42,1.51c0.6,0.36 1.37333,0.54 2.32,0.54v0c0.54667,0 1.04333,-0.13 1.49,-0.39c0.44667,-0.26 0.83333,-0.68333 1.16,-1.27c0.32,-0.58 0.56333,-1.35 0.73,-2.31c0.16,-0.96 0.24,-2.13667 0.24,-3.53v0c0,-1.14667 -0.07,-2.18 -0.21,-3.1c-0.13333,-0.92 -0.37,-1.70333 -0.71,-2.35c-0.33333,-0.64667 -0.78667,-1.15 -1.36,-1.51c-0.57333,-0.36 -1.29333,-0.54 -2.16,-0.54v0c-0.64667,0 -1.20667,0.13 -1.68,0.39c-0.47333,0.26 -0.87333,0.68333 -1.2,1.27c-0.32,0.58 -0.56333,1.35 -0.73,2.31c-0.16,0.96 -0.24,2.13667 -0.24,3.53zM229.93833,233.00833l-2.76,0.45l-7.47,-16.76c-0.72,-0.24667 -1.38,-0.54667 -1.98,-0.9v0v-1.45h9.82v1.42c-0.32667,0.17333 -0.65667,0.34 -0.99,0.5c-0.33333,0.16 -0.71333,0.30333 -1.14,0.43v0l3.47,9.56l0.71,2.5h0.08l0.59,-2.54l3.18,-9.52c-0.4,-0.1 -0.76667,-0.22333 -1.1,-0.37c-0.34,-0.15333 -0.66,-0.33 -0.96,-0.53v0v-1.45h7.21v1.45c-0.24667,0.17333 -0.55333,0.33667 -0.92,0.49c-0.36,0.14667 -0.76333,0.28333 -1.21,0.41v0z"></path></g></g></svg>