<?xml version="1.0" encoding="UTF-8"?>
<svg xmlns="http://www.w3.org/2000/svg" xmlns:xlink="http://www.w3.org/1999/xlink" width="24pt" height="24pt" viewBox="0 0 24 24" version="1.1">
<g id="surface1426">
<path style=" stroke:none;fill-rule:nonzero;fill:rgb(9.019608%,9.019608%,9.411765%);fill-opacity:1;" d="M 3.75 3.75 L 3.75 20.25 L 20.25 20.25 L 20.25 3.75 Z M 5.25 5.25 L 18.75 5.25 L 18.75 18.75 L 5.25 18.75 Z M 14.371094 7.5 C 13.410156 7.5 13.082031 8.1875 13.082031 8.652344 L 13.082031 9.878906 C 13.082031 10.5 13.421875 11.09375 14.296875 11.09375 C 15.769531 11.09375 15.589844 9.980469 15.589844 9.207031 L 14.441406 9.207031 L 14.441406 9.613281 L 15.117188 9.613281 C 15.117188 10.214844 14.835938 10.621094 14.296875 10.621094 C 13.875 10.621094 13.628906 10.253906 13.628906 9.746094 L 13.628906 8.726562 C 13.628906 8.253906 14.070312 7.980469 14.371094 7.980469 C 14.910156 7.980469 15.117188 8.453125 15.117188 8.453125 L 15.523438 8.179688 C 15.523438 8.179688 15.324219 7.5 14.371094 7.5 Z M 10.1875 9.820312 C 9.507812 9.820312 8.472656 9.882812 7.5 9.847656 L 7.5 10.148438 C 8.085938 10.261719 8.332031 10.203125 8.332031 11.054688 L 8.332031 15.203125 C 8.332031 16.058594 8.085938 15.996094 7.5 16.105469 L 7.5 16.417969 C 7.785156 16.410156 8.273438 16.382812 8.773438 16.382812 C 9.246094 16.382812 9.859375 16.402344 10.121094 16.417969 L 10.121094 16.105469 C 9.367188 16.003906 9.140625 16.089844 9.140625 15.203125 L 9.140625 13.449219 C 9.394531 13.46875 9.613281 13.464844 9.953125 13.464844 C 10.59375 14.617188 11.207031 15.476562 11.554688 15.882812 C 12.1875 16.644531 13.195312 16.53125 13.441406 16.417969 L 13.441406 16.136719 C 13.0625 16.136719 12.6875 15.882812 12.414062 15.582031 C 11.949219 15.082031 11.328125 14.269531 10.820312 13.355469 C 11.667969 13.148438 12.300781 12.347656 12.300781 11.554688 C 12.300781 10.363281 11.386719 9.820312 10.1875 9.820312 Z M 9.988281 10.296875 C 10.875 10.296875 11.402344 10.761719 11.402344 11.609375 C 11.402344 12.441406 10.835938 12.996094 9.894531 12.996094 C 9.546875 12.996094 9.386719 12.984375 9.140625 12.964844 L 9.140625 10.324219 C 9.386719 10.296875 9.707031 10.296875 9.988281 10.296875 Z M 9.988281 10.296875 "/>
</g>
</svg>
