<?xml version="1.0" encoding="UTF-8" standalone="no"?>
<!DOCTYPE svg PUBLIC "-//W3C//DTD SVG 1.1//EN" "http://www.w3.org/Graphics/SVG/1.1/DTD/svg11.dtd">
<svg xmlns="http://www.w3.org/2000/svg" version="1.1" viewBox="0.00 0.00 72.00 72.00" width="72.00" height="72.00">
<g stroke-width="2.00" fill="none" stroke-linecap="butt">
<path stroke="#d3e79c" vector-effect="non-scaling-stroke" d="
  M 24.43 15.81
  A 2.68 2.68 0.0 0 0 21.75 13.13
  A 2.68 2.68 0.0 0 0 19.07 15.81
  A 2.68 2.68 0.0 0 0 21.75 18.49
  A 2.68 2.68 0.0 0 0 24.43 15.81"
/>
<path stroke="#d3e79c" vector-effect="non-scaling-stroke" d="
  M 23.91 22.45
  A 0.41 0.41 0.0 0 0 23.50 22.04
  L 19.98 22.04
  A 0.41 0.41 0.0 0 0 19.57 22.45
  L 19.57 51.61
  A 0.41 0.41 0.0 0 0 19.98 52.02
  L 23.50 52.02
  A 0.41 0.41 0.0 0 0 23.91 51.61
  L 23.91 22.45"
/>
<path stroke="#d3e79c" vector-effect="non-scaling-stroke" d="
  M 30.29 22.46
  L 30.29 51.58
  A 0.44 0.44 0.0 0 0 30.73 52.02
  L 42.60 52.02
  A 15.41 14.80 -0.0 0 0 58.01 37.22
  L 58.01 36.82
  A 15.41 14.80 -0.0 0 0 42.60 22.02
  L 30.73 22.02
  A 0.44 0.44 0.0 0 0 30.29 22.46"
/>
<path stroke="#d3e79c" vector-effect="non-scaling-stroke" d="
  M 34.62 26.21
  L 34.62 47.91
  A 0.25 0.25 0.0 0 0 34.87 48.16
  L 42.35 48.16
  A 11.23 10.66 0.0 0 0 53.58 37.50
  L 53.58 36.62
  A 11.23 10.66 0.0 0 0 42.35 25.96
  L 34.87 25.96
  A 0.25 0.25 0.0 0 0 34.62 26.21"
/>
</g>
<path fill="#a6ce39" d="
  M 37.17 0.00
  Q 56.29 1.34 66.32 16.71
  Q 71.34 24.41 72.00 34.72
  L 72.00 37.19
  Q 70.70 55.86 55.95 65.92
  Q 48.06 71.30 37.28 72.00
  L 34.84 72.00
  Q 20.27 71.11 10.58 61.42
  Q 0.92 51.77 0.00 37.28
  L 0.00 34.83
  Q 0.66 24.19 5.87 16.37
  Q 15.88 1.37 34.71 0.00
  L 37.17 0.00
  Z
  M 24.43 15.81
  A 2.68 2.68 0.0 0 0 21.75 13.13
  A 2.68 2.68 0.0 0 0 19.07 15.81
  A 2.68 2.68 0.0 0 0 21.75 18.49
  A 2.68 2.68 0.0 0 0 24.43 15.81
  Z
  M 23.91 22.45
  A 0.41 0.41 0.0 0 0 23.50 22.04
  L 19.98 22.04
  A 0.41 0.41 0.0 0 0 19.57 22.45
  L 19.57 51.61
  A 0.41 0.41 0.0 0 0 19.98 52.02
  L 23.50 52.02
  A 0.41 0.41 0.0 0 0 23.91 51.61
  L 23.91 22.45
  Z
  M 30.29 22.46
  L 30.29 51.58
  A 0.44 0.44 0.0 0 0 30.73 52.02
  L 42.60 52.02
  A 15.41 14.80 -0.0 0 0 58.01 37.22
  L 58.01 36.82
  A 15.41 14.80 -0.0 0 0 42.60 22.02
  L 30.73 22.02
  A 0.44 0.44 0.0 0 0 30.29 22.46
  Z"
/>
<circle fill="#ffffff" cx="21.75" cy="15.81" r="2.68"/>
<rect fill="#ffffff" x="19.57" y="22.04" width="4.34" height="29.98" rx="0.41"/>
<path fill="#ffffff" d="
  M 30.29 22.46
  A 0.44 0.44 0.0 0 1 30.73 22.02
  L 42.60 22.02
  A 15.41 14.80 0.0 0 1 58.01 36.82
  L 58.01 37.22
  A 15.41 14.80 0.0 0 1 42.60 52.02
  L 30.73 52.02
  A 0.44 0.44 0.0 0 1 30.29 51.58
  L 30.29 22.46
  Z
  M 34.62 26.21
  L 34.62 47.91
  A 0.25 0.25 0.0 0 0 34.87 48.16
  L 42.35 48.16
  A 11.23 10.66 0.0 0 0 53.58 37.50
  L 53.58 36.62
  A 11.23 10.66 0.0 0 0 42.35 25.96
  L 34.87 25.96
  A 0.25 0.25 0.0 0 0 34.62 26.21
  Z"
/>
<path fill="#a6ce39" d="
  M 34.62 26.21
  A 0.25 0.25 0.0 0 1 34.87 25.96
  L 42.35 25.96
  A 11.23 10.66 -0.0 0 1 53.58 36.62
  L 53.58 37.50
  A 11.23 10.66 -0.0 0 1 42.35 48.16
  L 34.87 48.16
  A 0.25 0.25 0.0 0 1 34.62 47.91
  L 34.62 26.21
  Z"
/>
</svg>
