<?xml version="1.0" encoding="UTF-8" standalone="no"?>
<!DOCTYPE svg PUBLIC "-//W3C//DTD SVG 1.1//EN" "http://www.w3.org/Graphics/SVG/1.1/DTD/svg11.dtd">
<svg xmlns="http://www.w3.org/2000/svg" version="1.1" viewBox="0.00 0.00 300.00 169.00" width="300.00" height="169.00">
<path fill="#fcc917" d="
  M 74.96 84.27
  Q 74.60 84.14 71.06 84.35
  A 0.71 0.70 1.0 0 1 70.32 83.59
  Q 71.15 74.18 79.92 71.84
  A 0.87 0.86 82.7 0 0 80.56 71.00
  L 80.56 65.88
  A 0.58 0.58 0.0 0 0 79.91 65.30
  L 78.94 65.41
  A 0.42 0.42 0.0 0 1 78.47 64.99
  L 78.47 64.11
  A 0.46 0.46 0.0 0 1 79.16 63.71
  L 79.85 64.09
  A 0.56 0.55 -74.3 0 0 80.68 63.62
  Q 80.71 62.83 80.41 62.23
  A 0.43 0.43 0.0 0 1 80.79 61.60
  L 81.75 61.60
  A 0.32 0.31 0.0 0 1 82.07 61.91
  L 82.07 63.47
  A 0.46 0.46 0.0 0 0 82.58 63.93
  L 83.60 63.81
  A 0.54 0.54 0.0 0 1 84.20 64.35
  L 84.20 65.11
  A 0.28 0.27 90.0 0 1 83.93 65.39
  L 82.39 65.39
  A 0.29 0.29 0.0 0 0 82.10 65.68
  L 82.10 71.03
  A 0.83 0.82 -82.8 0 0 82.71 71.83
  Q 92.20 74.37 92.35 84.89
  A 0.78 0.77 7.6 0 0 92.91 85.62
  Q 93.20 85.71 93.79 85.56
  A 0.46 0.46 0.0 0 1 94.37 86.01
  L 94.37 87.98
  A 0.48 0.48 0.0 0 1 93.76 88.44
  Q 93.23 88.29 92.46 88.54
  A 0.52 0.52 0.0 0 0 92.50 89.54
  Q 93.36 89.76 93.79 89.69
  A 0.51 0.50 85.7 0 1 94.37 90.20
  L 94.37 92.08
  A 0.44 0.44 0.0 0 1 93.93 92.52
  L 92.90 92.52
  A 0.61 0.60 -90.0 0 0 92.30 93.13
  L 92.30 106.50
  A 0.56 0.56 0.0 0 1 91.74 107.06
  L 70.94 107.06
  A 0.62 0.62 0.0 0 1 70.32 106.44
  L 70.32 93.14
  A 0.64 0.64 0.0 0 0 69.60 92.50
  L 68.84 92.59
  A 0.56 0.55 -3.2 0 1 68.22 92.04
  L 68.22 90.37
  A 0.66 0.66 0.0 0 1 68.87 89.71
  Q 71.83 89.67 75.31 88.62
  A 0.12 0.12 0.0 0 0 75.27 88.39
  L 68.72 88.39
  A 0.50 0.50 0.0 0 1 68.22 87.89
  L 68.22 86.19
  A 0.40 0.40 0.0 0 1 68.55 85.80
  L 74.93 84.67
  A 0.21 0.21 0.0 0 0 74.96 84.27
  Z
  M 75.8245 92.3600
  A 1.57 0.71 -90.2 0 0 75.1200 93.9325
  A 1.57 0.71 -90.2 0 0 75.8355 95.5000
  A 1.57 0.71 -90.2 0 0 76.5400 93.9275
  A 1.57 0.71 -90.2 0 0 75.8245 92.3600
  Z
  M 79.32 94.05
  Q 79.42 93.96 80.75 93.30
  A 0.30 0.30 0.0 0 0 80.72 92.75
  Q 78.64 91.99 77.99 92.61
  Q 77.31 93.25 77.95 95.37
  A 0.30 0.30 0.0 0 0 78.50 95.43
  Q 79.23 94.14 79.32 94.05
  Z
  M 82.23 92.68
  Q 81.49 93.38 82.23 95.35
  A 0.29 0.29 0.0 0 0 82.76 95.39
  Q 83.46 94.12 83.53 94.06
  Q 83.60 93.99 84.90 93.36
  A 0.29 0.29 0.0 0 0 84.89 92.83
  Q 82.97 91.98 82.23 92.68
  Z
  M 86.37 92.69
  Q 85.90 93.15 86.39 95.22
  A 0.36 0.36 0.0 0 0 87.08 95.24
  Q 87.28 94.54 87.75 94.08
  Q 88.21 93.62 88.91 93.43
  A 0.36 0.36 0.0 0 0 88.90 92.74
  Q 86.84 92.22 86.37 92.69
  Z
  M 76.4552 97.2911
  A 0.62 0.62 0.0 0 0 75.8363 96.6701
  L 75.7763 96.6700
  A 0.62 0.62 0.0 0 0 75.1552 97.2889
  L 75.1448 103.2489
  A 0.62 0.62 0.0 0 0 75.7637 103.8699
  L 75.8237 103.8700
  A 0.62 0.62 0.0 0 0 76.4448 103.2511
  L 76.4552 97.2911
  Z
  M 79.35 98.24
  Q 79.43 98.15 80.75 97.43
  A 0.30 0.30 0.0 0 0 80.70 96.88
  Q 78.56 96.20 77.91 96.87
  Q 77.27 97.52 78.00 99.64
  A 0.30 0.30 0.0 0 0 78.56 99.68
  Q 79.25 98.34 79.35 98.24
  Z
  M 82.15 96.93
  Q 81.57 97.53 82.21 99.30
  A 0.58 0.55 -59.2 0 0 83.29 99.00
  Q 83.24 98.50 83.50 98.23
  Q 83.76 97.97 84.26 98.01
  A 0.58 0.55 -32.5 0 0 84.53 96.91
  Q 82.74 96.33 82.15 96.93
  Z
  M 86.37 96.91
  Q 86.01 97.29 86.39 99.27
  A 0.47 0.46 -7.1 0 0 86.88 99.65
  Q 87.52 99.60 87.67 98.45
  C 87.69 98.34 87.66 98.40 87.78 98.27
  C 87.91 98.14 87.85 98.17 87.96 98.15
  Q 89.10 97.94 89.12 97.30
  A 0.47 0.46 -85.6 0 0 88.73 96.83
  Q 86.72 96.54 86.37 96.91
  Z
  M 79.32 102.41
  Q 79.40 102.33 80.68 101.67
  A 0.27 0.27 0.0 0 0 80.66 101.18
  Q 78.65 100.33 77.93 101.09
  Q 77.21 101.85 78.15 103.81
  A 0.27 0.27 0.0 0 0 78.65 103.81
  Q 79.24 102.49 79.32 102.41
  Z
  M 83.43 102.37
  Q 83.46 102.35 84.73 101.86
  A 0.16 0.15 -3.7 0 0 84.83 101.75
  Q 85.04 100.98 84.44 100.95
  Q 82.38 100.86 82.14 101.10
  Q 81.91 101.34 82.02 103.40
  Q 82.05 103.99 82.81 103.78
  A 0.16 0.15 -86.7 0 0 82.92 103.68
  Q 83.40 102.40 83.43 102.37
  Z
  M 87.68 102.42
  Q 87.74 102.35 88.79 102.08
  A 0.54 0.54 0.0 0 0 88.74 101.03
  Q 86.75 100.71 86.35 101.11
  Q 85.95 101.52 86.31 103.50
  A 0.54 0.54 0.0 0 0 87.36 103.53
  Q 87.62 102.48 87.68 102.42
  Z"
/>
<path fill="#006b54" d="
  M 101.58 107.49
  A 0.44 0.43 -19.8 0 1 100.91 107.18
  L 99.87 98.40
  A 0.48 0.47 83.5 0 1 100.29 97.86
  L 100.77 97.80
  A 0.73 0.73 0.0 0 1 101.56 98.35
  Q 102.84 103.90 109.01 105.24
  C 117.93 107.18 122.99 96.43 113.40 92.65
  Q 110.61 91.55 106.27 89.49
  C 99.80 86.44 98.91 77.92 106.29 75.28
  Q 110.99 73.59 116.46 74.52
  C 118.00 74.78 118.55 74.82 119.59 73.76
  A 0.29 0.29 0.0 0 1 120.08 73.93
  L 120.96 81.37
  A 0.69 0.69 0.0 0 1 120.35 82.14
  L 119.86 82.20
  A 0.65 0.64 -6.8 0 1 119.15 81.65
  Q 118.33 75.46 110.25 76.08
  C 103.57 76.60 103.11 83.97 108.79 86.49
  C 115.69 89.56 122.78 91.39 122.38 98.60
  C 121.86 107.97 110.53 108.01 103.73 106.45
  A 1.03 1.01 34.7 0 0 102.97 106.58
  L 101.58 107.49
  Z"
/>
<path fill="#006b54" d="
  M 140.44 76.63
  A 0.74 0.73 -90.0 0 1 139.71 75.89
  L 139.71 75.31
  A 0.55 0.54 90.0 0 1 140.25 74.76
  L 162.09 74.76
  A 0.74 0.74 0.0 0 1 162.83 75.56
  L 162.32 81.66
  A 0.52 0.52 0.0 0 1 161.61 82.10
  L 161.57 82.08
  A 1.39 1.38 -79.1 0 1 160.77 80.89
  Q 160.59 76.42 156.04 76.54
  Q 152.14 76.64 147.72 76.76
  A 0.86 0.86 0.0 0 0 146.88 77.62
  L 146.88 88.99
  A 0.51 0.51 0.0 0 0 147.37 89.50
  Q 151.23 89.67 156.60 89.39
  Q 159.45 89.23 159.53 86.81
  A 0.93 0.93 0.0 0 1 160.46 85.91
  L 160.75 85.91
  A 0.24 0.24 0.0 0 1 160.99 86.15
  L 160.99 95.16
  A 0.47 0.47 0.0 0 1 160.52 95.63
  L 160.22 95.63
  A 0.71 0.70 -4.2 0 1 159.52 95.03
  Q 159.21 93.07 158.45 91.99
  A 1.17 1.15 72.2 0 0 157.50 91.49
  L 147.86 91.49
  A 0.98 0.97 0.0 0 0 146.88 92.46
  L 146.88 102.06
  A 2.22 2.21 -84.3 0 0 148.65 104.23
  Q 150.59 104.63 153.54 104.55
  C 158.02 104.45 162.14 104.69 163.55 99.75
  A 0.82 0.82 0.0 0 1 164.41 99.16
  L 164.43 99.16
  A 0.65 0.65 0.0 0 1 165.01 99.89
  Q 164.34 104.80 163.50 106.10
  A 0.68 0.65 -72.6 0 1 162.95 106.40
  L 140.96 106.54
  A 0.61 0.61 0.0 0 1 140.34 105.92
  L 140.34 105.88
  A 1.04 1.04 0.0 0 1 141.22 104.90
  Q 141.98 104.77 142.51 104.46
  A 1.33 1.32 75.2 0 0 143.17 103.31
  L 143.17 77.58
  A 0.95 0.95 0.0 0 0 142.22 76.63
  L 140.44 76.63
  Z"
/>
<path fill="#006b54" d="
  M 234.15 105.43
  A 0.40 0.39 13.8 0 1 234.47 105.95
  L 234.38 106.22
  A 1.01 1.01 0.0 0 1 233.43 106.89
  L 224.51 106.89
  A 0.39 0.36 64.3 0 1 224.26 106.79
  Q 223.73 106.30 223.86 105.89
  A 0.63 0.63 0.0 0 1 224.25 105.50
  Q 225.41 105.14 226.06 104.53
  A 0.79 0.79 0.0 0 0 226.27 103.69
  L 223.62 96.10
  A 0.91 0.90 -9.4 0 0 222.76 95.49
  L 211.89 95.49
  A 0.81 0.80 -80.3 0 0 211.13 96.03
  L 208.56 103.29
  A 0.99 0.99 0.0 0 0 209.16 104.55
  L 211.09 105.24
  A 0.75 0.75 0.0 0 1 210.84 106.69
  L 203.38 106.69
  A 0.69 0.69 0.0 0 1 203.04 105.39
  Q 205.51 104.01 206.99 100.47
  Q 212.81 86.55 217.50 75.05
  A 1.14 1.14 0.0 0 1 219.64 75.14
  Q 224.21 89.45 230.96 103.69
  Q 231.61 105.07 234.15 105.43
  Z
  M 212.48 92.65
  A 0.55 0.55 0.0 0 0 212.98 93.40
  L 221.91 93.53
  A 0.55 0.55 0.0 0 0 222.44 92.78
  L 218.13 81.17
  A 0.55 0.55 0.0 0 0 217.11 81.15
  L 212.48 92.65
  Z"
/>
<path fill="#006b54" d="
  M 173.48 82.05
  L 173.48 101.82
  A 2.73 2.73 0.0 0 0 175.49 104.45
  Q 177.30 104.95 177.92 105.36
  A 0.67 0.67 0.0 0 1 177.52 106.60
  Q 171.53 106.28 168.07 106.44
  Q 167.62 106.47 167.32 106.10
  A 0.57 0.57 0.0 0 1 167.57 105.20
  L 169.18 104.64
  A 2.33 2.32 83.1 0 0 170.73 102.66
  Q 171.61 93.69 171.36 80.73
  C 171.30 77.70 170.00 76.40 167.19 76.31
  A 0.79 0.79 0.0 0 1 166.43 75.52
  L 166.43 75.27
  A 0.46 0.46 0.0 0 1 166.89 74.81
  L 172.87 74.81
  A 1.05 1.04 73.2 0 1 173.74 75.28
  Q 175.56 78.03 177.63 80.11
  Q 186.63 89.12 196.90 98.93
  A 0.38 0.37 -68.0 0 0 197.53 98.66
  Q 197.62 91.71 197.54 83.02
  C 197.51 79.61 198.14 76.24 193.73 76.56
  A 0.80 0.79 88.0 0 1 192.88 75.76
  L 192.88 75.41
  A 0.58 0.57 -90.0 0 1 193.45 74.83
  L 203.72 74.83
  A 0.51 0.51 0.0 0 1 204.23 75.34
  L 204.23 75.71
  A 0.53 0.52 -88.0 0 1 203.67 76.24
  Q 200.36 75.99 200.09 80.84
  Q 199.37 93.93 199.73 106.49
  A 0.80 0.80 0.0 0 1 198.28 106.99
  Q 195.00 102.53 191.01 98.53
  Q 183.65 91.16 174.18 81.76
  A 0.41 0.41 0.0 0 0 173.48 82.05
  Z"
/>
<path fill="#006b54" d="
  M 128.61 90.75
  Q 128.61 81.19 128.45 78.05
  A 1.53 1.53 0.0 0 0 126.92 76.59
  L 124.60 76.59
  A 0.64 0.64 0.0 0 1 124.02 75.69
  L 124.15 75.38
  A 0.76 0.75 -78.0 0 1 124.82 74.94
  L 136.59 74.87
  A 0.87 0.87 0.0 0 1 137.44 75.55
  L 137.45 75.58
  A 0.68 0.67 -5.6 0 1 136.87 76.28
  L 133.72 76.73
  A 1.40 1.40 0.0 0 0 132.53 77.99
  Q 132.32 80.36 132.32 90.72
  Q 132.32 100.28 132.48 103.42
  A 1.53 1.53 0.0 0 0 134.01 104.88
  L 136.33 104.88
  A 0.64 0.64 0.0 0 1 136.91 105.78
  L 136.78 106.09
  A 0.76 0.75 -78.0 0 1 136.11 106.53
  L 124.34 106.60
  A 0.87 0.87 0.0 0 1 123.49 105.92
  L 123.48 105.89
  A 0.68 0.67 -5.6 0 1 124.06 105.19
  L 127.21 104.74
  A 1.40 1.40 0.0 0 0 128.40 103.48
  Q 128.61 101.11 128.61 90.75
  Z"
/>
</svg>
