<?xml version="1.0" encoding="UTF-8" standalone="no"?>
<!DOCTYPE svg PUBLIC "-//W3C//DTD SVG 1.1//EN" "http://www.w3.org/Graphics/SVG/1.1/DTD/svg11.dtd">
<svg xmlns="http://www.w3.org/2000/svg" version="1.1" viewBox="0.00 0.00 179.00 67.00" width="179.00" height="67.00">
<path fill="#fcc917" d="
  M 17.81 10.91
  L 19.32 10.91
  A 0.34 0.34 0.0 0 0 19.66 10.53
  L 19.47 8.87
  A 0.22 0.22 0.0 0 1 19.69 8.62
  L 20.65 8.62
  A 0.43 0.43 0.0 0 1 21.08 9.05
  L 21.08 10.47
  A 0.46 0.45 -3.4 0 0 21.59 10.92
  L 22.64 10.79
  A 0.48 0.47 -3.3 0 1 23.17 11.26
  L 23.17 12.13
  A 0.26 0.26 0.0 0 1 22.91 12.39
  L 21.39 12.39
  A 0.29 0.29 0.0 0 0 21.10 12.68
  L 21.10 18.05
  A 0.82 0.80 7.5 0 0 21.71 18.83
  Q 31.20 21.37 31.35 31.90
  A 0.77 0.75 7.9 0 0 31.90 32.61
  Q 32.26 32.71 32.78 32.57
  A 0.46 0.46 0.0 0 1 33.37 33.01
  L 33.37 35.01
  A 0.49 0.49 0.0 0 1 32.72 35.47
  Q 31.97 35.22 31.42 35.60
  Q 30.75 36.05 31.38 36.44
  Q 32.07 36.86 32.73 36.66
  A 0.51 0.50 -8.2 0 1 33.38 37.14
  L 33.38 38.92
  A 0.61 0.60 -0.0 0 1 32.77 39.52
  L 31.96 39.52
  A 0.67 0.66 90.0 0 0 31.30 40.19
  L 31.30 53.50
  A 0.57 0.56 -0.0 0 1 30.73 54.06
  L 9.93 54.06
  A 0.61 0.61 0.0 0 1 9.32 53.45
  L 9.32 40.14
  A 0.65 0.65 0.0 0 0 8.59 39.49
  L 7.84 39.59
  A 0.55 0.55 0.0 0 1 7.22 39.04
  L 7.22 37.37
  A 0.66 0.65 89.6 0 1 7.86 36.71
  Q 10.87 36.67 14.30 35.61
  A 0.11 0.11 0.0 0 0 14.27 35.39
  L 7.71 35.39
  A 0.49 0.49 0.0 0 1 7.22 34.90
  L 7.22 33.00
  A 0.42 0.41 87.0 0 1 7.59 32.58
  L 14.40 31.77
  A 0.23 0.23 0.0 0 0 14.38 31.31
  L 9.90 31.31
  A 0.58 0.57 2.3 0 1 9.32 30.69
  Q 10.13 21.15 18.97 18.83
  A 0.78 0.78 0.0 0 0 19.56 18.07
  L 19.56 12.64
  A 0.37 0.37 0.0 0 0 19.16 12.27
  Q 18.44 12.33 18.08 12.49
  A 0.43 0.43 0.0 0 1 17.48 12.10
  L 17.48 11.25
  A 0.34 0.33 -90.0 0 1 17.81 10.91
  Z
  M 14.8145 39.3500
  A 1.58 0.71 -90.2 0 0 14.1100 40.9325
  A 1.58 0.71 -90.2 0 0 14.8255 42.5100
  A 1.58 0.71 -90.2 0 0 15.5300 40.9275
  A 1.58 0.71 -90.2 0 0 14.8145 39.3500
  Z
  M 18.33 41.06
  Q 18.43 40.97 19.75 40.31
  A 0.30 0.30 0.0 0 0 19.72 39.75
  Q 17.65 39.00 17.00 39.62
  Q 16.32 40.26 16.96 42.37
  A 0.30 0.30 0.0 0 0 17.52 42.43
  Q 18.24 41.15 18.33 41.06
  Z
  M 21.23 39.66
  Q 20.90 39.97 21.05 41.91
  A 0.56 0.56 0.0 0 0 22.15 42.01
  Q 22.35 41.23 22.53 41.06
  Q 22.71 40.89 23.51 40.75
  A 0.56 0.56 0.0 0 0 23.49 39.64
  Q 21.56 39.35 21.23 39.66
  Z
  M 25.39 39.68
  Q 25.03 40.03 25.32 42.10
  A 0.49 0.49 0.0 0 0 26.26 42.21
  Q 26.67 41.18 26.76 41.09
  Q 26.85 41.01 27.90 40.63
  A 0.49 0.49 0.0 0 0 27.81 39.69
  Q 25.75 39.33 25.39 39.68
  Z
  M 15.4552 44.2811
  A 0.62 0.62 0.0 0 0 14.8363 43.6601
  L 14.7763 43.6600
  A 0.62 0.62 0.0 0 0 14.1552 44.2789
  L 14.1448 50.2389
  A 0.62 0.62 0.0 0 0 14.7637 50.8599
  L 14.8237 50.8600
  A 0.62 0.62 0.0 0 0 15.4448 50.2411
  L 15.4552 44.2811
  Z
  M 18.34 45.24
  Q 18.43 45.15 19.74 44.44
  A 0.31 0.30 39.9 0 0 19.68 43.88
  Q 17.56 43.19 16.90 43.86
  Q 16.27 44.51 16.99 46.62
  A 0.31 0.30 49.0 0 0 17.55 46.66
  Q 18.24 45.34 18.34 45.24
  Z
  M 21.15 43.91
  Q 20.86 44.21 21.03 46.16
  A 0.53 0.50 16.5 0 0 21.24 46.53
  Q 21.63 46.80 22.13 46.42
  A 0.43 0.42 71.0 0 0 22.30 46.07
  Q 22.27 45.47 22.50 45.24
  Q 22.72 45.02 23.33 45.03
  A 0.43 0.42 18.4 0 0 23.67 44.86
  Q 24.05 44.36 23.77 43.97
  A 0.53 0.50 72.9 0 0 23.40 43.77
  Q 21.44 43.62 21.15 43.91
  Z
  M 25.37 43.91
  Q 24.97 44.32 25.35 46.32
  A 0.48 0.48 0.0 0 0 26.27 46.42
  Q 26.71 45.35 26.79 45.27
  Q 26.87 45.19 27.91 44.71
  A 0.48 0.48 0.0 0 0 27.77 43.79
  Q 25.77 43.50 25.37 43.91
  Z
  M 21.14 48.10
  Q 20.86 48.38 20.99 50.42
  A 0.46 0.46 0.0 0 0 21.45 50.85
  Q 21.95 50.86 22.21 50.56
  Q 22.32 50.43 22.30 49.95
  Q 22.28 49.51 22.41 49.37
  Q 22.54 49.24 22.99 49.26
  Q 23.47 49.28 23.60 49.17
  Q 23.90 48.91 23.89 48.41
  A 0.46 0.46 0.0 0 0 23.46 47.95
  Q 21.42 47.82 21.14 48.10
  Z
  M 18.32 49.41
  Q 18.46 49.25 19.34 49.05
  A 0.56 0.56 0.0 0 0 19.24 47.94
  Q 17.18 47.83 16.94 48.08
  Q 16.69 48.34 16.89 50.40
  A 0.56 0.56 0.0 0 0 18.00 50.45
  Q 18.17 49.56 18.32 49.41
  Z
  M 26.68 49.41
  Q 26.73 49.36 27.80 49.08
  A 0.54 0.54 0.0 0 0 27.74 48.02
  Q 25.74 47.71 25.35 48.11
  Q 24.95 48.51 25.31 50.51
  A 0.54 0.54 0.0 0 0 26.37 50.54
  Q 26.63 49.47 26.68 49.41
  Z"
/>
<path fill="#006b54" d="
  M 40.57 54.49
  A 0.43 0.43 0.0 0 1 39.91 54.18
  L 38.86 45.33
  A 0.40 0.39 84.2 0 1 39.21 44.89
  L 39.85 44.81
  A 0.57 0.57 0.0 0 1 40.47 45.23
  Q 42.17 51.56 48.89 52.36
  Q 52.22 52.75 54.49 51.29
  C 58.79 48.52 58.64 42.52 53.69 40.30
  Q 47.66 37.59 44.96 36.34
  C 38.77 33.49 38.15 24.96 45.09 22.36
  Q 50.03 20.51 55.73 21.56
  C 57.12 21.82 57.63 21.70 58.57 20.77
  A 0.30 0.30 0.0 0 1 59.08 20.95
  L 59.96 28.36
  A 0.71 0.70 -7.0 0 1 59.34 29.14
  L 58.84 29.20
  A 0.63 0.63 0.0 0 1 58.14 28.65
  Q 57.44 22.72 49.75 23.04
  C 42.97 23.32 41.66 30.70 47.62 33.40
  C 54.67 36.59 61.70 38.28 61.39 45.61
  C 60.99 54.91 49.49 55.00 42.81 53.46
  A 1.19 1.17 -54.5 0 0 41.91 53.62
  L 40.57 54.49
  Z"
/>
<path fill="#006b54" d="
  M 79.35 23.60
  A 0.68 0.67 -90.0 0 1 78.68 22.92
  L 78.68 22.42
  A 0.67 0.67 0.0 0 1 79.35 21.75
  L 100.97 21.75
  A 0.86 0.85 -87.5 0 1 101.82 22.68
  L 101.31 28.63
  A 0.54 0.54 0.0 0 1 100.71 29.13
  L 100.64 29.12
  A 0.98 0.97 4.4 0 1 99.88 28.24
  C 99.69 25.43 98.82 23.62 95.47 23.58
  Q 91.38 23.54 86.69 23.77
  A 0.85 0.84 -1.4 0 0 85.88 24.61
  L 85.88 36.01
  A 0.49 0.49 0.0 0 0 86.35 36.50
  Q 90.31 36.68 95.81 36.37
  Q 98.45 36.22 98.54 33.77
  A 0.90 0.89 1.0 0 1 99.44 32.91
  L 99.73 32.91
  A 0.24 0.23 0.0 0 1 99.97 33.14
  L 99.97 42.27
  A 0.35 0.35 0.0 0 1 99.64 42.62
  L 99.37 42.63
  A 0.88 0.88 0.0 0 1 98.50 41.89
  Q 98.18 39.98 97.43 38.97
  A 1.20 1.18 71.2 0 0 96.48 38.49
  L 86.65 38.49
  A 0.79 0.79 0.0 0 0 85.86 39.28
  L 85.86 49.24
  A 1.99 1.98 5.7 0 0 87.46 51.18
  Q 89.63 51.63 92.31 51.56
  C 96.81 51.44 101.09 51.79 102.55 46.77
  A 0.84 0.83 -79.7 0 1 103.41 46.17
  L 103.43 46.17
  A 0.63 0.62 6.4 0 1 104.01 46.88
  Q 103.31 52.01 102.43 53.20
  A 0.68 0.67 18.0 0 1 101.89 53.47
  L 79.86 53.47
  A 0.55 0.55 0.0 0 1 79.31 52.92
  L 79.31 52.60
  A 0.60 0.60 0.0 0 1 79.82 52.01
  Q 81.63 51.70 81.97 50.86
  A 0.95 0.87 -35.3 0 0 82.05 50.49
  L 82.25 24.88
  A 1.28 1.27 0.2 0 0 80.97 23.60
  L 79.35 23.60
  Z"
/>
<path fill="#006b54" d="
  M 173.17 52.43
  A 0.39 0.39 0.0 0 1 173.48 52.94
  L 173.39 53.20
  A 1.05 1.04 -80.0 0 1 172.41 53.89
  L 163.50 53.89
  A 0.34 0.34 0.0 0 1 163.25 53.78
  Q 162.79 53.32 162.85 52.93
  Q 162.89 52.61 163.43 52.43
  Q 164.53 52.07 165.05 51.54
  A 0.91 0.90 -32.8 0 0 165.25 50.62
  L 162.62 43.11
  A 0.93 0.92 -9.1 0 0 161.74 42.48
  L 150.94 42.48
  A 0.87 0.86 9.4 0 0 150.12 43.06
  L 147.57 50.23
  A 1.06 1.06 0.0 0 0 148.22 51.58
  L 150.13 52.26
  A 0.74 0.74 0.0 0 1 149.88 53.69
  L 142.43 53.69
  A 0.75 0.75 0.0 0 1 142.09 52.28
  Q 144.37 51.13 145.51 48.47
  Q 150.01 38.04 156.47 22.10
  A 1.16 1.16 0.0 0 1 158.65 22.19
  Q 163.21 36.46 169.96 50.70
  Q 170.62 52.08 173.17 52.43
  Z
  M 151.44 39.71
  A 0.50 0.50 0.0 0 0 151.90 40.40
  L 160.99 40.53
  A 0.50 0.50 0.0 0 0 161.47 39.85
  L 157.09 28.05
  A 0.50 0.50 0.0 0 0 156.15 28.03
  L 151.44 39.71
  Z"
/>
<path fill="#006b54" d="
  M 112.59 28.99
  Q 112.17 34.40 112.61 48.12
  Q 112.73 51.79 116.14 51.85
  A 1.02 1.01 0.6 0 1 117.14 52.86
  L 117.14 53.19
  A 0.43 0.43 0.0 0 1 116.68 53.62
  Q 112.01 53.32 106.89 53.43
  Q 106.55 53.44 106.34 53.07
  A 0.69 0.59 -24.3 0 1 106.76 52.17
  C 108.84 51.43 109.62 51.00 109.83 48.58
  Q 110.73 38.26 110.25 26.22
  A 2.06 2.01 -62.7 0 0 109.94 25.21
  Q 108.81 23.40 106.18 23.32
  A 0.79 0.79 0.0 0 1 105.42 22.53
  L 105.42 22.26
  A 0.46 0.45 0.0 0 1 105.88 21.81
  L 111.87 21.81
  A 1.12 1.12 0.0 0 1 112.81 22.32
  Q 114.43 24.89 116.20 26.66
  Q 127.24 37.74 135.93 45.92
  A 0.36 0.36 0.0 0 0 136.54 45.66
  L 136.54 25.66
  A 2.06 2.06 0.0 0 0 134.48 23.60
  L 132.48 23.60
  A 0.60 0.60 0.0 0 1 131.88 23.00
  L 131.88 22.41
  A 0.58 0.58 0.0 0 1 132.46 21.83
  L 142.73 21.83
  A 0.50 0.50 0.0 0 1 143.23 22.33
  L 143.23 22.65
  A 0.52 0.52 0.0 0 1 142.81 23.16
  Q 141.35 23.42 140.38 23.96
  A 1.66 1.62 84.9 0 0 139.63 24.88
  Q 139.20 26.16 139.03 29.25
  Q 138.39 41.06 138.72 53.50
  A 0.78 0.78 0.0 0 1 137.30 53.98
  Q 134.53 50.16 131.45 47.04
  Q 121.97 37.43 113.18 28.77
  A 0.35 0.35 0.0 0 0 112.59 28.99
  Z"
/>
<path fill="#006b54" d="
  M 67.61 37.75
  Q 67.61 28.31 67.54 25.65
  Q 67.47 23.30 63.98 23.56
  A 0.81 0.81 0.0 0 1 63.11 22.80
  L 63.11 22.75
  A 0.79 0.79 0.0 0 1 63.90 21.93
  L 75.92 21.89
  A 0.51 0.51 0.0 0 1 76.44 22.40
  L 76.44 22.78
  A 0.56 0.56 0.0 0 1 75.91 23.34
  Q 73.01 23.49 72.39 23.88
  A 1.92 1.91 75.4 0 0 71.49 25.41
  Q 71.32 28.57 71.32 37.72
  Q 71.32 47.17 71.40 49.83
  Q 71.47 52.17 74.96 51.91
  A 0.81 0.81 0.0 0 1 75.83 52.67
  L 75.83 52.72
  A 0.79 0.79 0.0 0 1 75.04 53.54
  L 63.02 53.58
  A 0.51 0.51 0.0 0 1 62.50 53.07
  L 62.50 52.69
  A 0.56 0.56 0.0 0 1 63.03 52.13
  Q 65.93 51.98 66.55 51.59
  A 1.92 1.91 75.4 0 0 67.44 50.06
  Q 67.61 46.90 67.61 37.75
  Z"
/>
</svg>
